<svg version="1.1" id="Layer_1" xmlns="http://www.w3.org/2000/svg" xmlns:xlink="http://www.w3.org/1999/xlink" x="0px" y="0px"
	 width="2337px" height="1277.344px" viewBox="0 0 2337 1277.344" enable-background="new 0 0 2337 1277.344" xml:space="preserve">
<g>
	<path fill-rule="evenodd" clip-rule="evenodd" fill="#454545" d="M723.828,355.734c76.703,32.391,182.156,39.078,252.938-5.188
		c16.969-12.047,47.703-3.391,47.703-3.391c9.781-7.453,20.812-10.25,34.188-5.469c18.359,13.453,37.266,9.125,56.328,4.766
		c17.656-4.031,35.484-7.953,53.516,1.891c15.906-10.609,32.656-7.344,49.5-4.125c15.969,3.062,32.062,6.062,47.828-2.531
		c11.844-2.188,20.688,3,29.469,6.656c42.453-11.969,75.719,4.094,108.578,20.156c34.062,16.578,67.719,33.141,111.234,18.906
		c216.078-34.594,361.375-240.438,576.734-275.766c67.125-11.047,140.844-17.734,207.234-2.203
		c16.234,6.625,18.359,24.328,13.969,39.062c-19.297,27.641-46.969,26.672-80.625,25.75c-13.969-0.406-28.875-0.844-44.719,0.797
		c-70.781,9.609-133.906,25.812-198.375,61.938c-132.062,78.203-240.438,217.578-385.734,264.047
		c27.281,53.062,137.984,33.922,98.859,115.031c-53.891,44.969-146.031,48.688-208.766,17.688
		c-19.891-6.656-33.922-28-58.219-25.078c-14.031,17.703-2.984,39.125-8.844,60.469C1414.047,809.25,1260.703,906.578,1315.266,1060
		c3.719,27.203,26.344,63.859,17.688,82.359c-8.641,27.078-12.297,31.938-19.297,65c-16.625,23.75-43.375,55.484-65.453,61.344
		c-27.016,4.516-56.688,8.375-85.688,8.641h-6.656c-25.75-0.266-50.828-3.656-72.875-12.375
		c-27.781-14.5-58.516-48.891-62.219-61.141c-8.578-67.594-24.578-54.078-24.109-74.578c4.453-55.281,41.281-98.719,30.266-157.734
		c-19.156-126.875-123.203-217.547-118.75-354c-5.125-6.641-16.234-10.375-22.812-3.656
		c-56.812,28.75-132.062,58.219-194.734,22.828c-26.547-11.781-63.406-22.828-73.016-53.094
		c3.688-48.641,56.547-41.078,92.172-60.703c16-8.656,30.734-20.922,30.25-24.125C487.844,419.859,325.656,121.219,24.719,166.188
		C12.172,164,6.25,150.719,0.391,141.109c-0.188-1.125-0.328-2.266-0.391-3.359v-2.922c0.703-13.344,11.438-24.188,21.016-30.578
		c84.094-22.875,185.891-5.922,267.719,19.172C445.078,173.547,578.562,279.75,723.828,355.734L723.828,355.734z"/>
	<polygon fill-rule="evenodd" clip-rule="evenodd" fill="#454545" points="2248.984,0 2286.844,0 2286.844,5.031 2271.078,5.031
		2271.078,42.281 2264.75,42.281 2264.75,5.031 2248.984,5.031 2248.984,0 	"/>
	<polygon fill-rule="evenodd" clip-rule="evenodd" fill="#454545" points="2292.422,42.281 2292.422,0 2301.469,0 2314.781,35.734
		2328.078,0 2337,0 2337,42.281 2331.016,42.281 2331.016,17.297 2331.078,12.984 2331.141,6.594 2317.844,42.281 2311.594,42.281
		2298.281,6.594 2298.281,7.922 2298.344,12.641 2298.406,17.297 2298.406,42.281 2292.422,42.281 	"/>
</g>
</svg>
